<svg width="38" height="8" viewBox="0 0 38 8" fill="none"
    xmlns="http://www.w3.org/2000/svg">
    <g clip-path="url(#clip0_167_151)">
        <path d="M3.05992 3.10977C2.86442 3.25744 2.62488 3.33495 2.37993 3.32977C2.17419 3.33059 1.97268 3.27152 1.79994 3.15977C1.64593 3.0441 1.52258 2.89249 1.44066 2.71818C1.35873 2.54387 1.32072 2.35215 1.32994 2.15977C1.31026 2.00519 1.32333 1.8482 1.36833 1.69902C1.41333 1.54983 1.48923 1.41179 1.59111 1.29388C1.69298 1.17596 1.81856 1.08083 1.95964 1.01465C2.10071 0.948469 2.25413 0.912734 2.40992 0.90977C2.53818 0.905148 2.66595 0.927706 2.78486 0.975963C2.90378 1.02422 3.01116 1.09708 3.09993 1.18977V0.949771H3.79994V3.39977C3.82034 3.55945 3.7944 3.72163 3.72526 3.86701C3.65612 4.01238 3.54667 4.13483 3.40992 4.21977C3.13895 4.35077 2.84085 4.41587 2.53993 4.40977C2.17916 4.43861 1.82112 4.32761 1.53993 4.09977C1.46832 4.01844 1.41444 3.92309 1.38173 3.81979C1.34901 3.71648 1.33818 3.60749 1.34993 3.49977H2.11992C2.11623 3.57623 2.13515 3.65208 2.17427 3.71787C2.21339 3.78367 2.27098 3.83649 2.33992 3.86977C2.41922 3.88467 2.50063 3.88467 2.57994 3.86977C3.03994 3.86977 3.03993 3.60977 3.03993 3.39977L3.05992 3.10977ZM2.10994 2.10977C2.10994 2.32977 2.10994 2.76977 2.57994 2.76977C3.04994 2.76977 3.04994 2.46977 3.04994 2.10977C3.05828 1.93843 3.02747 1.76745 2.95991 1.60977C2.91256 1.54733 2.85006 1.49802 2.7783 1.46652C2.70655 1.43502 2.62795 1.42237 2.54994 1.42977C2.18994 1.42977 2.10994 1.73977 2.10994 2.09977V2.10977Z" fill="#76665e"/>
        <path d="M4.32007 0H5.06006V0.580002H4.32007V0ZM4.32007 0.900002H5.06006V3.45H4.32007V0.900002Z" fill="#76665e"/>
        <path d="M8.14999 2.17989C8.16209 2.36203 8.1348 2.54463 8.06995 2.71526C8.00509 2.88589 7.90422 3.04054 7.7742 3.16866C7.64418 3.29678 7.48806 3.39537 7.3165 3.4577C7.14493 3.52004 6.96194 3.54466 6.78 3.52989C6.59806 3.54466 6.41507 3.52004 6.2435 3.4577C6.07193 3.39537 5.91585 3.29678 5.78583 3.16866C5.65581 3.04054 5.55493 2.88589 5.49008 2.71526C5.42523 2.54463 5.39791 2.36203 5.41 2.17989C5.39576 1.98797 5.42498 1.7953 5.49548 1.61624C5.56599 1.43717 5.67597 1.2763 5.81723 1.14561C5.95849 1.01492 6.12743 0.917758 6.31143 0.861365C6.49543 0.804971 6.68977 0.790793 6.88 0.819887C7.0542 0.820907 7.22635 0.857473 7.38593 0.927347C7.5455 0.997221 7.68915 1.09893 7.80804 1.22625C7.92694 1.35357 8.01859 1.50382 8.07739 1.6678C8.13619 1.83178 8.16088 2.00603 8.14999 2.17989ZM6.29001 1.67989C6.20381 1.83196 6.16223 2.00526 6.17001 2.17989C6.17001 2.57989 6.36 2.93989 6.78 2.93989C7.2 2.93989 7.39001 2.60989 7.39001 2.20989C7.39875 2.09465 7.3847 1.97881 7.34866 1.869C7.31263 1.75919 7.25531 1.65755 7.17999 1.56989C7.12196 1.51487 7.05224 1.4737 6.97604 1.44945C6.89984 1.42521 6.81914 1.41852 6.73999 1.42989C6.65052 1.42688 6.56184 1.44747 6.48285 1.4896C6.40386 1.53173 6.33735 1.59391 6.29001 1.66989V1.67989Z" fill="#76665e"/>
        <path d="M10.16 3.11011C9.96757 3.25635 9.73164 3.33381 9.48998 3.33011C9.27581 3.34693 9.06194 3.29433 8.87999 3.18011C8.72283 3.06678 8.59656 2.91588 8.51272 2.7412C8.42887 2.56652 8.39011 2.37362 8.39998 2.18011C8.38022 2.02471 8.39358 1.86688 8.43917 1.71701C8.48476 1.56713 8.56155 1.42861 8.66451 1.31054C8.76747 1.19247 8.89425 1.09753 9.03652 1.03196C9.17879 0.96639 9.33333 0.93168 9.48998 0.930109C9.61689 0.924299 9.74356 0.946357 9.86104 0.99473C9.97852 1.0431 10.084 1.11662 10.17 1.21011V0.97011H10.87V3.42011C10.8904 3.57979 10.8645 3.74197 10.7953 3.88735C10.7262 4.03272 10.6167 4.15517 10.48 4.24011C10.209 4.37111 9.91092 4.43621 9.61001 4.43011C9.43111 4.44707 9.25061 4.4284 9.07897 4.37519C8.90733 4.32198 8.74794 4.23528 8.61001 4.12011C8.53764 4.03894 8.48256 3.94387 8.44817 3.84071C8.41378 3.73755 8.4008 3.62846 8.40999 3.52011H9.18999C9.18631 3.59657 9.20519 3.67242 9.24431 3.73821C9.28343 3.804 9.34106 3.85683 9.40999 3.89011C9.4892 3.906 9.57077 3.906 9.64998 3.89011C10.1 3.89011 10.1 3.63011 10.1 3.42011L10.16 3.11011ZM9.20998 2.11011C9.20998 2.33011 9.20999 2.77011 9.68999 2.77011C10.17 2.77011 10.16 2.47011 10.16 2.11011C10.1704 1.9376 10.136 1.76534 10.06 1.61011C10.0133 1.54693 9.95092 1.49707 9.87899 1.46549C9.80706 1.43392 9.72809 1.42172 9.64998 1.43011C9.29998 1.43011 9.20998 1.74011 9.20998 2.10011V2.11011Z" fill="#76665e"/>
        <path d="M12.1399 1.18014C12.3473 1.00358 12.6078 0.901493 12.8799 0.890137V1.56014H12.6299C12.2699 1.63014 12.1599 1.68014 12.1599 2.00014V3.44014H11.4099V0.890137H12.1399V1.18014Z" fill="#76665e"/>
        <path d="M13.16 1.62005C13.1581 1.51209 13.1815 1.40518 13.2284 1.30792C13.2753 1.21066 13.3443 1.12576 13.43 1.06005C13.6711 0.888271 13.9649 0.806845 14.26 0.830052C14.57 0.830052 15.3301 0.91005 15.3301 1.57005V3.05005C15.3301 3.32005 15.33 3.36005 15.4 3.45005H14.67V3.18005C14.4535 3.36876 14.1773 3.475 13.89 3.48005C13.7827 3.48833 13.6748 3.4743 13.5731 3.43882C13.4714 3.40335 13.3782 3.34721 13.2993 3.27394C13.2204 3.20067 13.1575 3.11185 13.1146 3.01308C13.0717 2.91431 13.0497 2.80773 13.0501 2.70005C13.0581 2.53871 13.1137 2.38336 13.2098 2.25348C13.3059 2.12361 13.4381 2.02501 13.59 1.97005C13.9155 1.86239 14.2503 1.78539 14.59 1.74005V1.60005C14.59 1.48005 14.59 1.29005 14.31 1.29005C14.03 1.29005 13.93 1.49005 13.91 1.58005L13.16 1.62005ZM14.16 2.39005C14.03 2.39005 13.84 2.51005 13.84 2.71005C13.8451 2.78079 13.8768 2.84697 13.9288 2.89523C13.9808 2.94349 14.0491 2.97023 14.12 2.97005C14.2133 2.96444 14.3033 2.9333 14.38 2.88005C14.63 2.73005 14.64 2.49005 14.64 2.23005L14.16 2.39005Z" fill="#76665e"/>
        <path d="M16.5599 0V1.18C16.6523 1.07637 16.7667 0.99474 16.8947 0.941097C17.0228 0.887455 17.1612 0.86316 17.2999 0.869999C17.459 0.876782 17.6148 0.916815 17.7575 0.987514C17.9002 1.05821 18.0265 1.15801 18.1282 1.28048C18.2299 1.40295 18.3049 1.54538 18.3482 1.69859C18.3916 1.85179 18.4024 2.01238 18.3799 2.17C18.3877 2.44211 18.3329 2.71236 18.2199 2.96C18.1414 3.14553 18.0087 3.30304 17.8392 3.41189C17.6697 3.52073 17.4713 3.57584 17.2699 3.57C17.1285 3.57549 16.9878 3.54756 16.8592 3.48849C16.7306 3.42941 16.6178 3.34085 16.5299 3.23V3.5H15.8799V0.0499992L16.5599 0ZM16.5599 2.15C16.552 2.34701 16.5933 2.54288 16.6799 2.72C16.7286 2.79462 16.7955 2.85574 16.8741 2.89769C16.9528 2.93964 17.0407 2.96107 17.1299 2.96C17.205 2.95965 17.279 2.94239 17.3466 2.9095C17.4141 2.87661 17.4733 2.82893 17.5199 2.77C17.6231 2.57995 17.6748 2.36621 17.6699 2.15C17.6699 1.74 17.5399 1.35 17.1199 1.37C16.6999 1.39 16.5399 2 16.5399 2.18L16.5599 2.15Z" fill="#76665e"/>
        <path d="M21.2199 2.80016C21.1221 2.93986 21.0079 3.06743 20.8799 3.18016C20.7456 3.30375 20.588 3.39926 20.4163 3.46109C20.2445 3.52291 20.0622 3.54979 19.8799 3.54016C19.7072 3.5413 19.5362 3.50576 19.3783 3.43589C19.2204 3.36602 19.079 3.26341 18.9637 3.13484C18.8484 3.00628 18.7617 2.8547 18.7093 2.69012C18.6569 2.52555 18.6401 2.35173 18.6599 2.18016C18.6412 1.99937 18.6615 1.81667 18.7194 1.64439C18.7774 1.47212 18.8716 1.31429 18.9958 1.18157C19.12 1.04886 19.2712 0.944342 19.4393 0.875091C19.6073 0.80584 19.7883 0.773466 19.9699 0.780158C20.1413 0.778591 20.311 0.813442 20.4679 0.8824C20.6248 0.951357 20.7652 1.05285 20.8799 1.18016C21.1415 1.50392 21.2702 1.91503 21.2399 2.33016H19.4199C19.413 2.41042 19.4228 2.49125 19.4489 2.5675C19.4749 2.64375 19.5165 2.71373 19.5711 2.773C19.6256 2.83227 19.6919 2.87953 19.7658 2.91175C19.8396 2.94397 19.9194 2.96046 19.9999 2.96016C20.1416 2.96225 20.2805 2.92001 20.397 2.83932C20.5136 2.75864 20.602 2.64356 20.6499 2.51016L21.2199 2.80016ZM20.4699 1.86016C20.459 1.72915 20.4104 1.6041 20.3299 1.50016C20.2299 1.40657 20.0969 1.35626 19.9599 1.36016C19.8888 1.35828 19.8182 1.37157 19.7527 1.39917C19.6871 1.42676 19.6283 1.46801 19.5799 1.52016C19.4974 1.61616 19.4452 1.73449 19.4299 1.86016H20.4699Z" fill="#76665e"/>
        <path d="M22.3599 1.18014C22.5621 1.00152 22.8202 0.898968 23.0899 0.890137V1.56014H22.8399C22.4799 1.63014 22.3799 1.68014 22.3799 2.00014V3.44014H21.6199V0.890137H22.3599V1.18014Z" fill="#76665e"/>
        <path d="M0.740021 5.26981C0.825357 5.16175 0.935134 5.07549 1.0603 5.01812C1.18547 4.96076 1.32246 4.93391 1.46002 4.93981C1.59389 4.92779 1.72867 4.94887 1.85248 5.00118C1.97629 5.0535 2.08535 5.13544 2.17004 5.23981C2.26846 5.13912 2.38704 5.06034 2.51801 5.00865C2.64897 4.95695 2.78936 4.93349 2.93002 4.93981C3.07008 4.9283 3.2106 4.95586 3.33594 5.01941C3.46128 5.08296 3.56655 5.18002 3.64005 5.29981C3.70121 5.49012 3.72495 5.69047 3.71002 5.88981V7.54981H2.97003V6.17981C2.98639 6.03694 2.98639 5.89267 2.97003 5.74981C2.94807 5.68046 2.9038 5.62031 2.84412 5.57872C2.78444 5.53712 2.71271 5.51641 2.64005 5.51981C2.55326 5.51828 2.46854 5.54651 2.40002 5.59981C2.26002 5.70981 2.26004 5.85981 2.26004 6.12981V7.51981H1.51004V6.00981C1.52175 5.88558 1.49744 5.7606 1.44003 5.64981C1.40487 5.60739 1.36043 5.57361 1.31015 5.55107C1.25987 5.52853 1.20509 5.51784 1.15002 5.51981C1.0755 5.51758 1.00213 5.53855 0.940033 5.57981C0.873582 5.6412 0.823294 5.71804 0.79364 5.80351C0.763986 5.88898 0.7559 5.98045 0.77005 6.06981V7.51981H0.0300293V4.97981H0.77005L0.740021 5.26981Z" fill="#76665e"/>
        <path d="M6.61992 6.89981C6.53142 7.03788 6.42741 7.16537 6.30992 7.2798C6.17562 7.4034 6.01799 7.49891 5.84627 7.56073C5.67454 7.62255 5.49218 7.64943 5.30992 7.6398C5.13515 7.65047 4.96014 7.62338 4.79677 7.5604C4.6334 7.49741 4.4855 7.39999 4.36311 7.27477C4.24073 7.14954 4.14673 6.99944 4.08751 6.83466C4.0283 6.66988 4.00527 6.49428 4.01994 6.3198C4.00122 6.13901 4.02151 5.95631 4.07945 5.78404C4.1374 5.61176 4.23164 5.45394 4.35582 5.32122C4.48001 5.1885 4.63125 5.08399 4.7993 5.01474C4.96735 4.94548 5.14831 4.91311 5.32994 4.91981C5.49978 4.91356 5.66905 4.9423 5.82732 5.00423C5.98558 5.06615 6.12943 5.15996 6.24993 5.2798C6.50307 5.60802 6.63075 6.01583 6.60994 6.4298H4.87993C4.87138 6.51039 4.8801 6.59187 4.90553 6.66882C4.93096 6.74576 4.9725 6.81641 5.02739 6.87603C5.08228 6.93565 5.14925 6.98287 5.22383 7.01456C5.29842 7.04625 5.3789 7.06168 5.45992 7.05981C5.60029 7.0613 5.7376 7.01867 5.85243 6.93792C5.96727 6.85718 6.05384 6.7424 6.09993 6.60981L6.61992 6.89981ZM5.86992 5.9598C5.86831 5.82682 5.81859 5.69893 5.72994 5.5998C5.68138 5.55203 5.62339 5.51491 5.55968 5.49081C5.49597 5.4667 5.42796 5.45614 5.35994 5.4598C5.28904 5.45916 5.21875 5.47302 5.1534 5.50053C5.08805 5.52805 5.02902 5.56864 4.97994 5.6198C4.90144 5.7183 4.84978 5.83543 4.82994 5.9598H5.86992Z" fill="#76665e"/>
        <path d="M7.18005 4.25977H7.93005V5.05976H8.42007V5.51976H7.92007V6.66977C7.92007 6.81977 7.92006 6.94976 8.12006 6.94976H8.38007V7.53976C8.25043 7.55358 8.11968 7.55358 7.99005 7.53976C7.86173 7.56152 7.72999 7.54995 7.60742 7.50618C7.48485 7.4624 7.37558 7.38789 7.29007 7.28976C7.19139 7.11351 7.15276 6.90991 7.18005 6.70976V5.47976H6.81006V5.02976H7.18005V4.25977Z" fill="#76665e"/>
        <path d="M8.76993 5.72015C8.77024 5.61257 8.79465 5.50641 8.84137 5.40951C8.8881 5.3126 8.95594 5.22739 9.03992 5.16015C9.28171 4.98991 9.57498 4.90864 9.86991 4.93015C10.1899 4.93015 10.9399 5.01015 10.9399 5.67015V7.18015C10.9399 7.45015 10.9399 7.49015 11.0199 7.58015H10.2799V7.35015C10.0633 7.53886 9.78712 7.6451 9.49991 7.65015C9.39255 7.65844 9.28463 7.6444 9.18296 7.60893C9.08128 7.57345 8.98806 7.51731 8.90915 7.44404C8.83024 7.37077 8.76736 7.28195 8.72446 7.18318C8.68156 7.08441 8.6596 6.97783 8.65992 6.87015C8.66801 6.70881 8.72357 6.55345 8.81964 6.42358C8.91571 6.29371 9.04802 6.19511 9.19992 6.14015C9.52555 6.03315 9.86027 5.95616 10.1999 5.91015V5.77015C10.1999 5.65015 10.1999 5.46015 9.90992 5.46015C9.61992 5.46015 9.52992 5.66015 9.50992 5.75015L8.76993 5.72015ZM9.71991 6.49015C9.59991 6.49015 9.39991 6.61015 9.39991 6.81015C9.40497 6.88089 9.43671 6.94707 9.48868 6.99533C9.54065 7.04359 9.60898 7.07033 9.6799 7.07015C9.77384 7.06803 9.86477 7.03656 9.93991 6.98015C10.1899 6.83015 10.1999 6.59015 10.2099 6.33015L9.71991 6.49015Z" fill="#76665e"/>
        <path d="M12.22 4.1001V7.5501H11.47V4.1001H12.22Z" fill="#76665e"/>
        <path d="M14.9901 6.95004C14.8951 7.13016 14.7578 7.28457 14.5901 7.40004C14.3777 7.55303 14.1218 7.63366 13.8601 7.63004C13.6865 7.63628 13.5135 7.60565 13.3525 7.5402C13.1916 7.47474 13.0464 7.37593 12.9264 7.25028C12.8064 7.12462 12.7144 6.97498 12.6564 6.81119C12.5985 6.6474 12.5758 6.4732 12.5901 6.30004C12.5729 6.12267 12.5938 5.94366 12.6514 5.77503C12.709 5.60639 12.802 5.45203 12.9242 5.32229C13.0464 5.19254 13.1948 5.09042 13.3597 5.02277C13.5246 4.95512 13.702 4.9235 13.8801 4.93004C14.0999 4.92406 14.3172 4.97759 14.5091 5.08497C14.701 5.19234 14.8602 5.34958 14.9701 5.54004L14.4201 5.86004C14.369 5.75402 14.2936 5.66153 14.2001 5.59004C14.1182 5.53208 14.0204 5.50066 13.9201 5.50004C13.5101 5.50004 13.3801 5.97004 13.3801 6.28004C13.3801 6.59004 13.5401 7.04004 13.9401 7.04004C14.0128 7.04012 14.0847 7.02401 14.1504 6.99287C14.2161 6.96174 14.2741 6.91636 14.3201 6.86004C14.3754 6.80547 14.4136 6.73598 14.4301 6.66004L14.9901 6.95004Z" fill="#76665e"/>
        <path d="M17.88 6.26988C17.8921 6.45201 17.8648 6.63462 17.7999 6.80525C17.7351 6.97588 17.6342 7.13052 17.5042 7.25865C17.3742 7.38677 17.2181 7.48536 17.0465 7.54769C16.8749 7.61003 16.6919 7.63465 16.51 7.61987C16.3281 7.63465 16.1451 7.61003 15.9735 7.54769C15.8019 7.48536 15.6458 7.38677 15.5158 7.25865C15.3858 7.13052 15.2849 6.97588 15.2201 6.80525C15.1552 6.63462 15.1279 6.45201 15.14 6.26988C15.1273 6.07876 15.1577 5.88724 15.2289 5.70944C15.3001 5.53163 15.4103 5.37207 15.5514 5.24251C15.6925 5.11296 15.8608 5.01672 16.044 4.96088C16.2272 4.90504 16.4207 4.89103 16.61 4.91988C16.7833 4.92097 16.9546 4.95725 17.1135 5.02651C17.2723 5.09577 17.4155 5.19657 17.5342 5.3228C17.653 5.44903 17.7448 5.59806 17.8043 5.76086C17.8637 5.92365 17.8895 6.09683 17.88 6.26988V6.26988ZM16.03 5.76988C15.9358 5.91902 15.8904 6.09376 15.9 6.26988C15.9 6.66988 16.09 7.02987 16.51 7.02987C16.93 7.02987 17.12 6.69987 17.12 6.29987C17.1287 6.18463 17.1147 6.0688 17.0787 5.95899C17.0426 5.84918 16.9853 5.74754 16.91 5.65988C16.852 5.60486 16.7822 5.56369 16.706 5.53944C16.6298 5.5152 16.5491 5.50851 16.47 5.51988C16.3744 5.51109 16.2784 5.52999 16.1933 5.57432C16.1081 5.61865 16.0376 5.68654 15.99 5.76988H16.03Z" fill="#76665e"/>
        <path d="M18.46 6.68992C18.6511 6.89917 18.9169 7.02488 19.2 7.03992C19.38 7.03992 19.65 6.97992 19.65 6.78992C19.6505 6.76031 19.6422 6.73121 19.6262 6.70629C19.6101 6.68138 19.5871 6.66176 19.56 6.64992C19.4192 6.59444 19.2709 6.56072 19.12 6.54992C19.0046 6.53279 18.8909 6.50603 18.78 6.46992C18.6228 6.43545 18.4778 6.35947 18.36 6.24992C18.2959 6.18762 18.2451 6.11296 18.2107 6.03045C18.1763 5.94794 18.1591 5.8593 18.16 5.76992C18.16 5.34992 18.53 4.91992 19.24 4.91992C19.6511 4.91992 20.0511 5.05326 20.38 5.29992L19.91 5.72992C19.7329 5.57361 19.5062 5.48505 19.27 5.47992C18.98 5.47992 18.91 5.58992 18.91 5.66992C18.91 5.74992 19.07 5.83992 19.32 5.88992C19.83 5.97992 20.43 6.10992 20.43 6.71992C20.43 7.32992 19.82 7.60992 19.22 7.60992C18.991 7.61545 18.7633 7.57493 18.5503 7.49075C18.3373 7.40658 18.1433 7.28047 17.98 7.11992L18.46 6.68992Z" fill="#76665e"/>
        <path d="M20.9999 4.25977H21.7499V5.05976H22.2399V5.51976H21.7499V6.66977C21.7499 6.81977 21.7499 6.94976 21.9399 6.94976H22.2099V7.53976C22.0802 7.55307 21.9495 7.55307 21.8199 7.53976C21.6901 7.56138 21.5569 7.54979 21.4327 7.50608C21.3086 7.46236 21.1975 7.38795 21.1099 7.28976C21.0157 7.11191 20.9773 6.90976 20.9999 6.70976V5.47976H20.6299V5.02976H20.9999V4.25977Z" fill="#76665e"/>
        <path d="M23.3799 5.26996C23.5808 5.08163 23.8446 4.97471 24.1199 4.96996V5.63996H23.8699C23.4999 5.69996 23.3999 5.74996 23.3999 6.06996V7.50996H22.6499V4.95996H23.3799V5.26996Z" fill="#76665e"/>
        <path d="M25.99 5H26.74V7.55H25.99V7.31C25.9179 7.3937 25.8294 7.46177 25.73 7.51C25.58 7.58151 25.4161 7.61907 25.25 7.62C25.1289 7.6303 25.0071 7.61216 24.8942 7.56702C24.7813 7.52188 24.6806 7.45099 24.6 7.36C24.4594 7.1332 24.4027 6.86425 24.44 6.6V5H25.2V6.58C25.1867 6.68708 25.2077 6.79561 25.26 6.89C25.2989 6.92976 25.3457 6.96098 25.3973 6.98164C25.449 7.0023 25.5044 7.01196 25.56 7.01C25.6502 7.01124 25.7394 6.99066 25.82 6.95C25.8797 6.91244 25.9274 6.8586 25.9576 6.79482C25.9877 6.73103 25.9989 6.65997 25.99 6.59V5Z" fill="#76665e"/>
        <path d="M27.3399 5H29.52V5.58L28.17 6.96H29.52V7.55H27.1899V6.98L28.5699 5.58H27.3399V5Z" fill="#76665e"/>
        <path d="M30.03 4.1001H30.7701V4.6801H30.03V4.1001ZM30.03 5.0001H30.7701V7.5501H30.03V5.0001Z" fill="#76665e"/>
        <path d="M33.88 6.26988C33.8919 6.45111 33.8648 6.63279 33.8006 6.80266C33.7363 6.97254 33.6363 7.12665 33.5074 7.2546C33.3785 7.38255 33.2237 7.48137 33.0534 7.54438C32.883 7.60739 32.7012 7.63314 32.52 7.61987C32.3376 7.63447 32.1543 7.60981 31.9822 7.54755C31.8102 7.48529 31.6535 7.38688 31.5228 7.25895C31.392 7.13101 31.2901 6.97653 31.2241 6.80592C31.1581 6.6353 31.1294 6.45251 31.14 6.26988C31.1273 6.07876 31.1577 5.88724 31.2289 5.70944C31.3001 5.53163 31.4103 5.37207 31.5514 5.24251C31.6925 5.11296 31.8608 5.01672 32.044 4.96088C32.2272 4.90504 32.4207 4.89103 32.61 4.91988C32.7833 4.92097 32.9546 4.95725 33.1135 5.02651C33.2723 5.09577 33.4155 5.19657 33.5342 5.3228C33.653 5.44903 33.7448 5.59806 33.8043 5.76086C33.8637 5.92365 33.8895 6.09683 33.88 6.26988V6.26988ZM32.03 5.76988C31.9403 5.92092 31.8952 6.09428 31.9 6.26988C31.9 6.66988 32.1 7.02987 32.52 7.02987C32.94 7.02987 33.12 6.69987 33.12 6.29987C33.1287 6.18463 33.1147 6.0688 33.0787 5.95899C33.0426 5.84918 32.9853 5.74754 32.91 5.65988C32.8524 5.60423 32.7827 5.56265 32.7064 5.53836C32.6301 5.51408 32.5492 5.50775 32.47 5.51988C32.3794 5.51682 32.2896 5.53848 32.2103 5.58251C32.1311 5.62655 32.0653 5.69132 32.02 5.76988H32.03Z" fill="#76665e"/>
        <path d="M35.11 5.23022C35.1754 5.14375 35.2613 5.075 35.36 5.03022C35.506 4.97052 35.6623 4.93995 35.82 4.94022C35.9791 4.93647 36.1368 4.97076 36.28 5.04022C36.55 5.18022 36.62 5.41022 36.62 5.81022V7.55022H35.88V6.11022C35.9043 5.98472 35.9043 5.85572 35.88 5.73022C35.8503 5.66923 35.803 5.61855 35.7441 5.58469C35.6853 5.55083 35.6177 5.53534 35.55 5.54022C35.15 5.54022 35.15 5.86022 35.15 6.17022V7.55022H34.4V5.01022H35.16L35.11 5.23022Z" fill="#76665e"/>
        <path d="M37.24 4.1001H37.99V4.6801H37.24V4.1001ZM37.24 5.0001H37.99V7.5501H37.24V5.0001Z" fill="#76665e"/>
    </g>
    <defs>
        <clipPath id="clip0_167_151">
            <rect width="37.99" height="7.65" fill="#76665e"/>
        </clipPath>
    </defs>
</svg>
